<svg width="22" height="22" viewBox="0 0 22 22" fill="none" xmlns="http://www.w3.org/2000/svg">
<path d="M12.332 12.375C11.7376 11.931 11.0967 11.5908 10.4092 11.3545C9.72168 11.1182 9.00195 11 8.25 11C7.61979 11 7.01107 11.0824 6.42383 11.2471C5.83659 11.4118 5.28874 11.641 4.78027 11.9346C4.27181 12.2282 3.8099 12.5863 3.39453 13.0088C2.97917 13.4313 2.62109 13.8968 2.32031 14.4053C2.01953 14.9137 1.78678 15.4616 1.62207 16.0488C1.45736 16.6361 1.375 17.2448 1.375 17.875H0C0 17.0156 0.125326 16.1885 0.375977 15.3936C0.626628 14.5986 0.988281 13.8646 1.46094 13.1914C1.93359 12.5182 2.49219 11.9202 3.13672 11.3975C3.78125 10.8747 4.51172 10.4629 5.32812 10.1621C4.92708 9.91146 4.56901 9.61784 4.25391 9.28125C3.9388 8.94466 3.66667 8.57227 3.4375 8.16406C3.20833 7.75586 3.04004 7.32975 2.93262 6.88574C2.8252 6.44173 2.76432 5.97982 2.75 5.5C2.75 4.74089 2.89323 4.02832 3.17969 3.3623C3.46615 2.69629 3.86003 2.11621 4.36133 1.62207C4.86263 1.12793 5.44629 0.734049 6.1123 0.44043C6.77832 0.14681 7.49089 0 8.25 0C9.00911 0 9.72168 0.143229 10.3877 0.429688C11.0537 0.716146 11.6338 1.11003 12.1279 1.61133C12.6221 2.11263 13.016 2.69629 13.3096 3.3623C13.6032 4.02832 13.75 4.74089 13.75 5.5C13.75 5.97266 13.6927 6.43457 13.5781 6.88574C13.4635 7.33691 13.2917 7.76302 13.0625 8.16406C12.8333 8.5651 12.5612 8.93392 12.2461 9.27051C11.931 9.6071 11.5693 9.9043 11.1611 10.1621C11.5908 10.3268 11.9954 10.5202 12.375 10.7422V12.375H12.332ZM4.125 5.5C4.125 6.07292 4.23242 6.60645 4.44727 7.10059C4.66211 7.59473 4.95573 8.03158 5.32812 8.41113C5.70052 8.79069 6.13737 9.08789 6.63867 9.30273C7.13997 9.51758 7.67708 9.625 8.25 9.625C8.81575 9.625 9.34928 9.51758 9.85059 9.30273C10.3519 9.08789 10.7887 8.79427 11.1611 8.42188C11.5335 8.04948 11.8307 7.61263 12.0527 7.11133C12.2747 6.61003 12.3822 6.07292 12.375 5.5C12.375 4.93424 12.2676 4.40072 12.0527 3.89941C11.8379 3.39811 11.5443 2.96126 11.1719 2.58887C10.7995 2.21647 10.359 1.91927 9.85059 1.69727C9.34212 1.47526 8.80859 1.36784 8.25 1.375C7.67708 1.375 7.14355 1.48242 6.64941 1.69727C6.15527 1.91211 5.71842 2.20573 5.33887 2.57812C4.95931 2.95052 4.66211 3.39095 4.44727 3.89941C4.23242 4.40788 4.125 4.94141 4.125 5.5ZM22 13.75V22H11V13.75H13.75V11H19.25V13.75H22ZM15.125 13.75H17.875V12.375H15.125V13.75ZM20.625 17.875H19.25V19.25H17.875V17.875H15.125V19.25H13.75V17.875H12.375V20.625H20.625V17.875ZM20.625 15.125H12.375V16.5H20.625V15.125Z" fill="currentColor"/>
</svg>
