<svg width="22" height="18" viewBox="0 0 22 18" fill="none" xmlns="http://www.w3.org/2000/svg">
<path d="M4.33624 16.2735C5.20017 16.2735 5.93682 15.9736 6.54618 15.374C7.15554 14.7751 7.46022 14.0413 7.46022 13.1725C7.46022 12.61 7.3103 12.0653 7.01047 11.5384C6.71064 11.0115 6.2916 10.6223 5.75336 10.371L5.31453 10.1092V2.70592C5.31453 2.43114 5.22482 2.19919 5.0454 2.01008C4.8668 1.82097 4.63041 1.72641 4.33624 1.72641C4.07681 1.72641 3.84851 1.82097 3.65131 2.01008C3.45493 2.19839 3.35673 2.43033 3.35673 2.70592V10.1092L2.91911 10.371C2.36551 10.6425 1.94244 11.0329 1.64988 11.542C1.35813 12.0512 1.21225 12.5947 1.21225 13.1725C1.21225 14.0413 1.51694 14.7751 2.1263 15.374C2.73566 15.9736 3.4723 16.2735 4.33624 16.2735ZM4.32411 17.4857C3.12802 17.4857 2.10811 17.0655 1.26438 16.225C0.421461 15.3845 0 14.3593 0 13.1495C0 12.33 0.195173 11.5958 0.585519 10.9468C0.975057 10.2987 1.49471 9.78629 2.14448 9.40969V2.70592C2.14448 2.09171 2.35986 1.57286 2.79061 1.14938C3.22056 0.725901 3.73577 0.51416 4.33624 0.51416C4.96661 0.51416 5.48949 0.725901 5.90489 1.14938C6.31949 1.57286 6.52678 2.09171 6.52678 2.70592V9.40969C7.16119 9.78629 7.67721 10.3039 8.07483 10.9626C8.47326 11.6221 8.67247 12.3587 8.67247 13.1725C8.67247 14.3613 8.24697 15.3776 7.39597 16.2213C6.54496 17.0643 5.52101 17.4857 4.32411 17.4857ZM12.3347 12.404C11.4732 11.8463 10.7394 11.1081 10.1332 10.1892C9.52711 9.27028 9.22405 8.1744 9.22405 6.90153C9.22405 5.1276 9.84513 3.61955 11.0873 2.3774C12.3278 1.13524 13.8351 0.51416 15.609 0.51416C17.3829 0.51416 18.8914 1.13524 20.1343 2.3774C21.3781 3.61955 22 5.1276 22 6.90153C22 8.1744 21.6969 9.27028 21.0908 10.1892C20.4847 11.1072 19.7513 11.8455 18.8906 12.404H12.3347ZM12.7166 11.1917H18.6057C19.2757 10.6753 19.8066 10.0599 20.1986 9.34544C20.5914 8.63021 20.7877 7.81557 20.7877 6.90153C20.7877 5.47915 20.2806 4.26084 19.2664 3.24658C18.2521 2.23314 17.033 1.72641 15.609 1.72641C14.1842 1.72641 12.9659 2.23314 11.954 3.24658C10.9422 4.26003 10.4363 5.47834 10.4363 6.90153C10.4363 7.83093 10.6489 8.65324 11.0739 9.36847C11.499 10.0829 12.0466 10.6906 12.7166 11.1917ZM15.6126 17.4857C15.19 17.4857 14.8198 17.3273 14.5022 17.0105C14.1854 16.6929 14.027 16.3228 14.027 15.9001H17.197C17.197 16.3228 17.0386 16.6929 16.7218 17.0105C16.405 17.3273 16.0353 17.4857 15.6126 17.4857ZM12.6753 14.8285V13.6162H18.5499V14.8285H12.6753Z" fill="currentColor"/>
</svg>
