<svg width="22" height="22" viewBox="0 0 22 22" fill="none" xmlns="http://www.w3.org/2000/svg">
<path fill-rule="evenodd" clip-rule="evenodd" d="M2.45742 8.42599C1.90742 8.679 0.519222 9.50839 0.343222 9.62059C0.237432 9.68624 0.150302 9.77798 0.0901998 9.88701C0.0300976 9.99604 -0.000956193 10.1187 2.24343e-05 10.2432V11.7568C-0.000748129 11.8832 0.0312803 12.0076 0.092978 12.1179C0.154676 12.2281 0.243931 12.3205 0.352021 12.386C0.585221 12.5334 1.93822 13.3408 2.46622 13.5806L3.14822 15.2306C2.92822 15.8114 2.53442 17.369 2.48822 17.5714C2.46048 17.6925 2.46411 17.8187 2.49875 17.9381C2.5334 18.0574 2.59792 18.1659 2.68622 18.2534L3.75542 19.3226C3.8431 19.4105 3.95164 19.4748 4.07091 19.5094C4.19017 19.5441 4.31627 19.5479 4.43742 19.5206L4.46514 19.5135C4.7957 19.4289 6.24921 19.0568 6.77821 18.8606L8.42821 19.5426C8.68121 20.0926 9.51061 21.4808 9.62281 21.6568C9.68923 21.7619 9.78114 21.8484 9.88999 21.9084C9.99885 21.9684 10.1211 21.9999 10.2454 22H11.7568C11.8832 22.0008 12.0076 21.9687 12.1179 21.907C12.2282 21.8453 12.3205 21.7561 12.386 21.648C12.5334 21.4148 13.3408 20.0618 13.5806 19.5338L15.2306 18.8518C15.8114 19.0718 17.369 19.4656 17.5714 19.5118C17.6925 19.5395 17.8187 19.5359 17.9381 19.5013C18.0574 19.4666 18.166 19.4021 18.2534 19.3138L19.3226 18.2446C19.4105 18.1569 19.4748 18.0484 19.5095 17.9291C19.5441 17.8098 19.5479 17.6837 19.5206 17.5626L19.5135 17.5347C19.4288 17.2039 19.0568 15.7507 18.8606 15.2218L19.5426 13.5718C20.0926 13.3188 21.4808 12.4894 21.6568 12.3772C21.7619 12.3108 21.8484 12.2189 21.9084 12.11C21.9684 12.0012 21.9999 11.8789 22 11.7546V10.2432C21.9999 10.1182 21.9676 9.99524 21.9064 9.88623C21.8451 9.77722 21.7569 9.68575 21.6502 9.62059C21.417 9.47319 20.064 8.6658 19.536 8.42599L18.854 6.776C19.074 6.1952 19.4678 4.6376 19.514 4.4352C19.5417 4.31406 19.5381 4.18786 19.5035 4.06851C19.4688 3.94917 19.4043 3.84064 19.316 3.7532L18.2468 2.6774C18.1591 2.58945 18.0506 2.52516 17.9313 2.49054C17.812 2.45591 17.686 2.45208 17.5648 2.4794L17.537 2.48651C17.2063 2.57115 15.753 2.94317 15.224 3.1394L13.574 2.4574C13.321 1.9074 12.4916 0.5192 12.3794 0.3432C12.313 0.238133 12.2211 0.151571 12.1122 0.0915661C12.0034 0.031561 11.8811 6.22685e-05 11.7568 0H10.2432C10.1182 0.000137035 9.99526 0.0323728 9.88625 0.0936205C9.77723 0.154868 9.68577 0.243077 9.62061 0.3498C9.47321 0.583 8.66581 1.936 8.42601 2.464L6.77602 3.146C6.19522 2.926 4.63762 2.5322 4.43522 2.486C4.31409 2.45826 4.18787 2.46188 4.06853 2.49653C3.94919 2.53118 3.84066 2.5957 3.75322 2.684L2.67742 3.7532C2.58947 3.84088 2.52518 3.94942 2.49056 4.06869C2.45593 4.18795 2.4521 4.31405 2.47942 4.4352C2.4815 4.4433 2.48387 4.45258 2.48653 4.46297C2.57116 4.79361 2.94318 6.24701 3.13942 6.776L2.45742 8.42599ZM11 15.5833C13.5313 15.5833 15.5833 13.5313 15.5833 11C15.5833 8.46868 13.5313 6.41665 11 6.41665C8.46868 6.41665 6.41665 8.46868 6.41665 11C6.41665 13.5313 8.46868 15.5833 11 15.5833Z" fill="currentColor"/>
</svg>
