<svg width="22" height="22" viewBox="0 0 22 22" fill="none" xmlns="http://www.w3.org/2000/svg">
<path d="M1.57143 0.785714C1.57143 0.57733 1.48865 0.377481 1.3413 0.230131C1.19395 0.0827805 0.994099 0 0.785714 0C0.57733 0 0.377481 0.0827805 0.230131 0.230131C0.0827805 0.377481 0 0.57733 0 0.785714V18.0714C0 19.1133 0.413902 20.1126 1.15065 20.8493C1.8874 21.5861 2.88665 22 3.92857 22H21.2143C21.4227 22 21.6225 21.9172 21.7699 21.7699C21.9172 21.6225 22 21.4227 22 21.2143C22 21.0059 21.9172 20.8061 21.7699 20.6587C21.6225 20.5114 21.4227 20.4286 21.2143 20.4286H3.92857C3.30342 20.4286 2.70387 20.1802 2.26182 19.7382C1.81977 19.2961 1.57143 18.6966 1.57143 18.0714V0.785714ZM14.9286 3.14286C14.7202 3.14286 14.5203 3.22564 14.373 3.37299C14.2256 3.52034 14.1429 3.72019 14.1429 3.92857C14.1429 4.13696 14.2256 4.3368 14.373 4.48416C14.5203 4.63151 14.7202 4.71429 14.9286 4.71429H19.3176L12.5714 11.4604L9.98486 8.87229C9.91187 8.79911 9.82517 8.74106 9.72971 8.70145C9.63425 8.66184 9.53192 8.64145 9.42857 8.64145C9.32522 8.64145 9.22289 8.66184 9.12743 8.70145C9.03198 8.74106 8.94527 8.79911 8.87229 8.87229L3.37229 14.3723C3.22475 14.5198 3.14186 14.7199 3.14186 14.9286C3.14186 15.1372 3.22475 15.3373 3.37229 15.4849C3.51982 15.6324 3.71992 15.7153 3.92857 15.7153C4.13722 15.7153 4.33732 15.6324 4.48486 15.4849L9.42857 10.5396L12.0151 13.1277C12.1625 13.275 12.3623 13.3578 12.5706 13.3578C12.779 13.3578 12.9788 13.275 13.1261 13.1277L20.4286 5.82529V10.2143C20.4286 10.4227 20.5114 10.6225 20.6587 10.7699C20.8061 10.9172 21.0059 11 21.2143 11C21.4227 11 21.6225 10.9172 21.7699 10.7699C21.9172 10.6225 22 10.4227 22 10.2143V3.92857C22 3.72019 21.9172 3.52034 21.7699 3.37299C21.6225 3.22564 21.4227 3.14286 21.2143 3.14286H14.9286Z" fill="currentColor"/>
</svg>
