<svg width="22" height="24" viewBox="0 0 22 24" fill="none" xmlns="http://www.w3.org/2000/svg">
<path d="M8.46154 0.577148C5.16154 0.577148 2.53846 3.20023 2.53846 6.50023C2.53268 7.47065 2.76679 8.42747 3.21999 9.28559C3.67319 10.1437 4.33142 10.8765 5.13615 11.4189C2.12385 12.7161 0 15.7165 0 19.1925H1.69231C1.69231 15.4695 4.73846 12.4233 8.46154 12.4233C11.7615 12.4233 14.3846 9.80023 14.3846 6.50023C14.3846 3.20023 11.7615 0.577148 8.46154 0.577148ZM8.46154 2.26946C10.8308 2.26946 12.6923 4.131 12.6923 6.50023C12.6923 8.86946 10.8308 10.731 8.46154 10.731C6.09231 10.731 4.23077 8.86946 4.23077 6.50023C4.23077 4.131 6.09231 2.26946 8.46154 2.26946ZM15.3154 11.5771V13.3541C14.8077 13.4387 14.3 13.6925 13.8769 13.9464L12.6077 12.6771L11.4231 13.8618L12.6923 15.131C12.3538 15.5541 12.1846 16.0618 12.1 16.6541H10.1538V18.3464H11.9308C12.0154 18.8541 12.2692 19.3618 12.5231 19.8695L11.2538 21.1387L12.4385 22.3233L13.7077 21.0541C14.1308 21.3079 14.6385 21.5618 15.1462 21.6464V23.4233H16.8385V21.6464C17.3462 21.5618 17.8538 21.3079 18.2769 21.0541L19.5462 22.3233L20.7308 21.1387L19.4615 19.8695C19.8 19.4464 19.9692 18.9387 20.0538 18.3464H22V16.6541H20.2231C20.1385 16.1464 19.8846 15.6387 19.6308 15.131L20.9 13.8618L19.7154 12.6771L18.4462 13.9464C18.0231 13.6925 17.5154 13.4387 17.0077 13.3541V11.5771H15.3154ZM16.0769 14.9618C17.5154 14.9618 18.6154 16.0618 18.6154 17.5002C18.6154 18.9387 17.5154 20.0387 16.0769 20.0387C14.6385 20.0387 13.5385 18.9387 13.5385 17.5002C13.5385 16.0618 14.6385 14.9618 16.0769 14.9618ZM16.0769 16.6541C15.9693 16.6554 15.8634 16.6802 15.7664 16.7268C15.6657 16.7747 15.5741 16.8397 15.4956 16.9189C15.4164 16.9974 15.3514 17.089 15.3035 17.1897C15.2569 17.2867 15.2321 17.3926 15.2308 17.5002C15.2308 17.8175 15.4685 18.1348 15.7664 18.2736C15.8634 18.3202 15.9693 18.3451 16.0769 18.3464C16.5 18.3464 16.9231 17.9233 16.9231 17.5002C16.9231 17.0772 16.5 16.6541 16.0769 16.6541Z" fill="currentColor"/>
</svg>
