<svg width="22" height="22" viewBox="0 0 22 22" fill="none" xmlns="http://www.w3.org/2000/svg">
<path d="M11 0C13.9174 0 16.7153 1.15893 18.7782 3.22183C20.8411 5.28473 22 8.08262 22 11C22 13.9174 20.8411 16.7153 18.7782 18.7782C16.7153 20.8411 13.9174 22 11 22C8.08262 22 5.28473 20.8411 3.22183 18.7782C1.15893 16.7153 0 13.9174 0 11C0 8.08262 1.15893 5.28473 3.22183 3.22183C5.28473 1.15893 8.08262 0 11 0ZM11 1.15789C8.38971 1.15789 5.88633 2.19483 4.04058 4.04058C2.19483 5.88633 1.15789 8.38971 1.15789 11C1.15789 13.6103 2.19483 16.1137 4.04058 17.9594C5.88633 19.8052 8.38971 20.8421 11 20.8421C12.2925 20.8421 13.5723 20.5875 14.7664 20.0929C15.9605 19.5983 17.0455 18.8733 17.9594 17.9594C18.8733 17.0455 19.5983 15.9605 20.0929 14.7664C20.5875 13.5723 20.8421 12.2925 20.8421 11C20.8421 8.38971 19.8052 5.88633 17.9594 4.04058C16.1137 2.19483 13.6103 1.15789 11 1.15789ZM10.4211 5.78947V8.10526H11.5789V5.78947H10.4211ZM10.4211 10.4211V16.2105H11.5789V10.4211H10.4211Z" fill="currentColor"/>
</svg>
