<svg width="130" height="50" viewBox="0 0 130 50" fill="none" xmlns="http://www.w3.org/2000/svg">
<g clip-path="url(#clip0_15350_13431)">
<path d="M8.15469 35.427C8.16692 35.3243 8.18935 35.2217 8.18935 35.1416C8.19774 35.0388 8.17235 34.9361 8.1171 34.8493C8.06184 34.7625 7.97978 34.6964 7.88354 34.6611C7.67968 34.5811 7.66745 34.5811 6.79285 34.5811H5.98758H5.13745C3.95706 34.5811 3.95706 34.5811 3.60641 34.6837C3.19868 34.811 2.99481 35.119 2.80114 35.8623C2.52795 36.969 2.42602 37.5521 2.42602 37.9299C2.42602 38.3747 2.67542 38.6375 3.17421 38.7183C3.51467 38.7635 3.51467 38.7635 5.44325 38.7635C7.23525 38.7984 7.54309 38.6382 7.7021 37.587H4.7868L5.09464 36.1703H10.2566L10.0282 37.2215C9.80193 38.3179 9.73466 38.5582 9.53079 39.0694C9.14344 40.0057 8.33817 40.4861 7.11293 40.521C6.85198 40.521 5.62673 40.521 4.22005 40.521C1.80422 40.521 1.28232 40.4635 0.668684 40.1207C0.226293 39.8722 0 39.3692 0 38.6485C0 38.1578 0.136591 37.3693 0.464817 35.9793C0.907209 34.0719 1.48415 33.3286 2.73386 33.0083C3.38012 32.8481 4.2649 32.803 6.24038 32.803C8.99666 32.803 9.43905 32.8481 10.018 33.2136C10.3809 33.4313 10.5624 33.8193 10.5624 34.3675C10.5512 34.7297 10.502 35.0896 10.4156 35.4414L8.15469 35.427Z" fill="black"/>
<path d="M12.5012 32.8542H14.8049L13.5817 38.5909H18.7986L18.4011 40.4758H10.8906L12.5012 32.8542Z" fill="black"/>
<path d="M29.836 33.1316C30.311 33.3698 30.5618 33.9077 30.5618 34.6838C30.5618 35.0945 30.4823 35.5996 30.1867 36.9691C29.9033 38.2605 29.6648 38.9011 29.2448 39.4144C28.6781 40.1002 27.9299 40.4205 26.6924 40.5006C26.2153 40.5232 25.2286 40.5458 24.2195 40.5458C21.5692 40.5458 20.9576 40.4883 20.346 40.1803C19.869 39.9401 19.6202 39.4144 19.6202 38.6486C19.6202 38.203 19.7222 37.6097 20.0504 36.1005C20.4826 34.0904 21.0269 33.3595 22.3643 32.994C23.0228 32.8113 23.7608 32.7661 25.6894 32.7661C28.7453 32.7661 29.1775 32.799 29.836 33.1316ZM22.6884 35.2567C22.4377 35.6899 22.0768 37.199 22.0768 37.8499C22.0768 38.5582 22.4173 38.6835 24.3683 38.6835C25.3876 38.6835 25.9687 38.6835 26.3642 38.6383C27.249 38.5582 27.5874 38.2154 27.8504 37.1066C27.9971 36.557 28.092 35.9947 28.1337 35.4271C28.1337 34.7085 27.8748 34.6284 25.5487 34.6284C23.3694 34.6284 22.9942 34.7023 22.6884 35.2567Z" fill="black"/>
<path d="M32.5902 32.8542H39.4197C40.2943 32.8542 40.7469 32.9241 41.0874 33.1294C41.2794 33.2278 41.438 33.3815 41.5433 33.5708C41.6485 33.7601 41.6956 33.9766 41.6786 34.1929C41.6786 34.8315 41.4625 35.6302 41.1893 36.0203C40.9406 36.3632 40.6796 36.5008 40.0782 36.6137C40.8611 36.6938 41.2362 37.0716 41.2362 37.745C41.2362 38.556 40.9059 39.402 40.4065 39.8598C39.907 40.3177 39.3525 40.4758 38.1272 40.4758H30.9878L32.5902 32.8542ZM37.7154 38.7757C38.2597 38.7757 38.3739 38.7634 38.5553 38.6608C38.6761 38.5738 38.7741 38.4587 38.8412 38.3254C38.9083 38.1921 38.9424 38.0444 38.9407 37.8949C38.9527 37.799 38.9323 37.7019 38.8827 37.6192C38.8332 37.5364 38.7573 37.473 38.6675 37.4391C38.5431 37.3919 38.4636 37.3816 37.9417 37.3816H33.8725L33.5891 38.7757H37.7154ZM38.0661 35.8848C38.6002 35.8848 38.7816 35.8499 38.9508 35.7246C39.0505 35.643 39.1307 35.54 39.1857 35.4231C39.2407 35.3063 39.2692 35.1785 39.2689 35.0491C39.2834 34.9499 39.2613 34.8488 39.2069 34.7648C39.1524 34.6808 39.0693 34.6198 38.9733 34.5933C38.752 34.5345 38.5223 34.5151 38.2944 34.5358H34.4739L34.1905 35.8848H38.0661Z" fill="black"/>
<path d="M46.9405 32.8542H50.027L52.557 40.4758H50.0372L49.5724 39.1166H44.6938L43.6847 40.4758H41.0752L46.9405 32.8542ZM49.1076 37.5294L48.1127 34.4783L45.8559 37.5192L49.1076 37.5294Z" fill="black"/>
<path d="M54.9382 32.8542H57.2398L56.0268 38.5909H61.2336L60.836 40.4758H53.3256L54.9382 32.8542Z" fill="black"/>
<path d="M68.2099 34.7309H64.84L65.2375 32.8542H74.279L73.8713 34.7412H70.5136L69.2904 40.4758H66.9867L68.2099 34.7309Z" fill="black"/>
<path d="M83.5469 32.8543L83.1779 34.5708H77.0802L76.7968 35.8848H82.5663L82.2482 37.3919H76.4788L76.1954 38.7408H82.3889L82.026 40.4655H73.5635L75.174 32.844L83.5469 32.8543Z" fill="black"/>
<path d="M85.0555 32.8542H87.3571L86.7557 35.7H87.9789L91.6913 32.8542H94.8574L89.7179 36.626L93.6648 40.4758H90.3295L87.5284 37.552H86.3704L85.7466 40.4758H83.4429L85.0555 32.8542Z" fill="black"/>
<path d="M96.046 32.8542H99.6911L101.381 37.9175L105.196 32.8542H108.826L107.216 40.4758H104.973L106.335 34.5913L101.74 40.4758H99.895L97.842 34.5913L96.6617 40.4758H94.4354L96.046 32.8542Z" fill="black"/>
<path d="M118.893 32.8542L118.53 34.581H112.427L112.143 35.8951H117.919L117.601 37.4021H111.825L111.542 38.7511H117.737L117.372 40.4758H108.91L110.52 32.8542H118.893Z" fill="black"/>
<path d="M120.402 32.8542H126.926C128.173 32.8542 128.832 32.9692 129.274 33.2444C129.751 33.54 129.99 34.0102 129.99 34.6611C129.99 35.4824 129.582 37.5171 129.195 38.5807C129.043 39.0203 128.784 39.4142 128.44 39.7257C128.097 40.0373 127.681 40.2565 127.231 40.3629C126.7 40.4607 126.16 40.4986 125.621 40.4758H118.789L120.402 32.8542ZM125.335 38.6587C126.118 38.6587 126.334 38.6135 126.64 38.4082C126.946 38.2029 127.152 37.8251 127.356 36.934C127.464 36.5191 127.529 36.0937 127.547 35.6651C127.547 34.9691 127.242 34.7514 126.21 34.7514H122.308L121.478 38.6525L125.335 38.6587Z" fill="black"/>
<path d="M42.0456 48.3235C41.9049 49.0072 41.8417 49.2085 41.6786 49.4179C41.3932 49.8018 40.9794 49.9456 40.0864 49.9764C39.8826 49.9764 39.271 49.9907 38.7226 49.9907C37.5198 49.9907 37.1385 49.9312 36.8205 49.7033C36.6166 49.5596 36.5167 49.307 36.5167 48.9149C36.5539 48.3592 36.6475 47.8088 36.796 47.2723C37.0223 46.3401 37.2935 45.9767 37.9275 45.7488C38.2883 45.6174 38.7226 45.5784 39.7439 45.5784C41.0507 45.5784 41.5033 45.6051 41.7826 45.6954C41.9512 45.7319 42.1004 45.8299 42.2017 45.9705C42.3029 46.1111 42.349 46.2844 42.331 46.4571C42.3252 46.686 42.293 46.9133 42.2352 47.1347H40.9773C40.9891 47.0772 40.9959 47.0188 40.9977 46.9602C40.9977 46.6604 40.855 46.6214 39.801 46.6214C39.4075 46.6022 39.0131 46.6194 38.6227 46.6727C38.2802 46.7651 38.1701 46.9212 38.0355 47.4796C37.9471 47.7966 37.8924 48.1222 37.8724 48.4508C37.8724 48.8615 38.06 48.9333 39.0753 48.9333C40.0905 48.9333 40.221 48.921 40.4086 48.8409C40.5961 48.7609 40.7001 48.6356 40.7714 48.3215L42.0456 48.3235Z" fill="#0D8CC7"/>
<path d="M48.9016 45.7752C49.1727 45.9128 49.3093 46.2187 49.3093 46.6622C49.2808 47.1022 49.2091 47.5382 49.0953 47.964C48.9342 48.7011 48.7976 49.0645 48.5591 49.3581C48.235 49.7482 47.8089 49.931 47.1035 49.9741C46.8323 49.9885 46.2697 50.0008 45.6948 50.0008C44.1882 50.0008 43.8375 49.9679 43.4828 49.7954C43.2117 49.6579 43.0751 49.3581 43.0751 48.9228C43.0751 48.6682 43.1322 48.3295 43.3197 47.4692C43.5664 46.3235 43.8763 45.9067 44.6387 45.6972C45.0139 45.5925 45.4359 45.5679 46.5347 45.5679C48.2737 45.5679 48.5204 45.5843 48.9016 45.7752ZM44.8243 46.9866C44.6307 47.4573 44.515 47.9567 44.4818 48.465C44.4818 48.8756 44.6856 48.9413 45.7885 48.9413C46.3716 48.9413 46.6998 48.9413 46.9261 48.9146C47.4317 48.8694 47.6193 48.6744 47.7742 48.042C47.8576 47.7289 47.9116 47.4085 47.9353 47.0852C47.9353 46.6746 47.7864 46.6294 46.4613 46.6294C45.2157 46.6294 45.0016 46.6746 44.8263 46.9866H44.8243Z" fill="#0D8CC7"/>
<path d="M50.7956 45.6128H52.8791L53.8434 48.4976L56.0146 45.6128H58.0859L57.1664 49.9574H55.8861L56.6629 46.6107L54.0432 49.9574H52.9892L51.819 46.6107L51.1462 49.9656H49.8782L50.7956 45.6128Z" fill="#0D8CC7"/>
<path d="M59.3722 45.6128H62.6708C63.5046 45.6128 63.7044 45.6395 63.9511 45.775C64.0788 45.8478 64.1831 45.9559 64.2517 46.0865C64.3204 46.2171 64.3504 46.3648 64.3384 46.5121C64.3098 46.9827 64.2164 47.4471 64.0611 47.8919C63.9928 48.1156 63.869 48.318 63.7013 48.48C63.5336 48.6421 63.3277 48.7583 63.103 48.8179C62.77 48.8769 62.4318 48.901 62.0938 48.8897H59.9858L59.7595 49.9574H58.4528L59.3722 45.6128ZM62.1142 47.8426C62.4954 47.8426 62.6504 47.7974 62.7727 47.6537C62.8919 47.4708 62.955 47.2565 62.9541 47.0377C62.9624 46.9763 62.9506 46.9137 62.9204 46.8596C62.8902 46.8056 62.8434 46.7628 62.787 46.738C62.6505 46.6863 62.5036 46.6687 62.3589 46.6866H60.4507L60.206 47.8529L62.1142 47.8426Z" fill="#0D8CC7"/>
<path d="M67.2354 45.6128H68.9948L70.4361 49.9574H69.009L68.744 49.1813H65.9551L65.3802 49.9574H63.892L67.2354 45.6128ZM68.4708 48.282L67.902 46.5511L66.6156 48.282H68.4708Z" fill="#0D8CC7"/>
<path d="M72.1181 45.6128H74.2077L76.122 48.9144L76.7805 45.6128H78.0221L77.1108 49.9574H75.0028L73.115 46.6866L72.4606 49.9574H71.2007L72.1181 45.6128Z" fill="#0D8CC7"/>
<path d="M79.3043 45.6128H80.6152L79.7121 49.9574H78.3992L79.3043 45.6128Z" fill="#0D8CC7"/>
<path d="M86.6823 45.6128L86.4785 46.5963H82.9964L82.8333 47.3457H86.1258L85.9443 48.206H82.6519L82.4908 48.9739H86.032L85.8281 49.9574H80.9904L81.9098 45.6128H86.6823Z" fill="#0D8CC7"/>
<path d="M88.4783 48.5698C88.4623 48.6448 88.4534 48.7211 88.4518 48.7977C88.4508 48.8514 88.4693 48.9035 88.5039 48.9444C88.5384 48.9853 88.5866 49.012 88.6394 49.0195C88.9098 49.0547 89.1823 49.0698 89.4549 49.0646C89.9992 49.0646 90.5496 49.0523 90.7107 49.0318C91.1042 48.9866 91.2611 48.8511 91.2611 48.5575C91.2654 48.5045 91.2523 48.4516 91.224 48.4068C91.1957 48.3619 91.1536 48.3276 91.1042 48.3091C90.9757 48.2639 90.9757 48.2639 90.2887 48.2577H89.0899C88.7013 48.2768 88.3119 48.2436 87.932 48.1592C87.7855 48.1236 87.6563 48.0367 87.5674 47.9142C87.4786 47.7916 87.4358 47.6412 87.4468 47.4898C87.4475 46.9851 87.6034 46.493 87.8932 46.0813C88.25 45.685 88.7923 45.5803 90.4803 45.5803C91.7667 45.5803 92.0848 45.607 92.4008 45.7302C92.5309 45.7757 92.6419 45.8642 92.7159 45.9812C92.7899 46.0982 92.8225 46.2369 92.8085 46.3749C92.805 46.5667 92.7769 46.7571 92.7249 46.9416H91.4507C91.4607 46.8922 91.4668 46.8421 91.4691 46.7917C91.4691 46.5577 91.3141 46.5125 90.5578 46.5125C90.0216 46.5125 89.4447 46.531 89.2388 46.5515C89.1816 46.5518 89.125 46.5635 89.0724 46.586C89.0198 46.6086 88.9721 46.6414 88.9323 46.6827C88.8924 46.724 88.8611 46.7729 88.8402 46.8265C88.8194 46.8801 88.8093 46.9374 88.8107 46.995C88.8083 47.0348 88.816 47.0745 88.8331 47.1104C88.8502 47.1464 88.8762 47.1773 88.9085 47.2003C89.0186 47.2722 89.0247 47.2722 89.5487 47.2845H90.7719C90.8493 47.2845 91.0695 47.2845 91.412 47.305C91.889 47.3235 92.046 47.344 92.2275 47.4344C92.3526 47.4882 92.4572 47.5811 92.5259 47.6995C92.5945 47.8178 92.6236 47.9552 92.6087 48.0914C92.611 48.5855 92.4614 49.0681 92.1806 49.4732C91.832 49.8839 91.2897 49.9947 89.4916 49.9947C88.352 49.9947 88.0033 49.9742 87.667 49.9023C87.2592 49.812 87.0859 49.6026 87.0859 49.2453C87.0887 49.0178 87.123 48.7918 87.1879 48.5739L88.4783 48.5698Z" fill="#0D8CC7"/>
<path d="M56.9971 11.7596C60.2203 5.54653 64.8623 1.62898 67.7369 2.56115C67.5587 2.35824 67.3528 2.18194 67.1253 2.03757C64.3262 0.337509 59.2682 4.34129 55.831 10.9835C52.3938 17.6256 51.8638 24.3848 54.6629 26.0787C54.8376 26.1843 55.0236 26.2697 55.2174 26.3333C53.1481 24.046 53.8413 17.8535 56.9971 11.7596Z" fill="url(#paint0_linear_15350_13431)"/>
<path d="M63.9817 20.4305C59.7678 20.4305 59.7005 20.4305 58.8341 20.3032C57.4586 20.0828 56.7709 19.3587 56.7709 18.1309C56.7709 17.092 57.0523 15.4843 57.8025 12.4291C58.3346 10.3759 58.8973 9.53201 60.0226 9.18502C60.993 8.90167 60.993 8.90167 64.2447 8.90167L66.5912 8.87087L68.744 8.90167C69.0295 6.9429 68.9622 5.23052 68.5259 3.95752H67.2762C61.835 3.95752 59.3947 4.11356 57.6129 4.55501C54.1472 5.43789 52.5774 7.48495 51.3583 12.7453C50.451 16.5869 50.0759 18.7612 50.0759 20.1143C50.0759 22.0998 50.7018 23.4857 51.9209 24.1776C53.3888 24.9989 54.6691 25.2248 59.3458 25.2699C60.8829 24.231 62.4996 22.5617 63.9817 20.4305Z" fill="url(#paint1_linear_15350_13431)"/>
<path d="M63.2762 17.1861H65.9265L65.951 17.1409C66.5981 15.8946 67.1574 14.6041 67.6247 13.2788H64.1203L63.2762 17.1861Z" fill="url(#paint2_linear_15350_13431)"/>
<path d="M67.3291 17.1861H71.3127C70.8846 20.0134 70.0691 20.5 65.4393 20.4343C64.2522 22.2493 62.8101 23.8815 61.1581 25.2799H61.7085C65.582 25.2799 68.9621 25.2799 69.6818 25.2491C73.0598 25.1546 75.28 23.8303 76.3442 21.2474C76.9068 19.8614 77.0944 19.1941 77.7203 16.178L78.3441 13.2788H68.9662C68.5129 14.6186 67.9658 15.9243 67.3291 17.1861Z" fill="black"/>
<path d="M77.6918 5.09074C76.3075 4.21607 75.2046 4.00459 69.9591 3.96558C70.2629 5.36587 70.2812 7.05567 70.0203 8.90357C71.2639 8.90357 71.3903 8.94669 71.8123 9.12121C72.0791 9.2162 72.3071 9.39786 72.4602 9.6376C72.6134 9.87734 72.6831 10.1616 72.6583 10.4455C72.6583 10.6652 72.5951 10.9486 72.5645 11.2319H78.7866C79.0679 9.90965 79.1943 9.05961 79.1943 8.27118C79.1943 6.76001 78.6928 5.68823 77.6918 5.09074Z" fill="black"/>
<path d="M68.9275 0.618757C68.2004 0.186437 67.3656 -0.0272994 66.5218 0.00279104C66.9758 0.0767219 67.4117 0.236986 67.8062 0.475031C71.2414 2.56316 70.9478 10.2011 67.1497 17.5352C63.3517 24.8693 57.4905 29.1236 54.0513 27.0355C54.3068 27.2982 54.5937 27.5278 54.9055 27.7192C58.6729 30.0085 64.8664 25.7994 68.7419 18.3196C72.6175 10.8397 72.6949 2.91426 68.9275 0.618757Z" fill="black"/>
</g>
<defs>
<linearGradient id="paint0_linear_15350_13431" x1="52.8607" y1="13.9935" x2="67.7369" y2="13.9935" gradientUnits="userSpaceOnUse">
<stop stop-color="#0294D3"/>
<stop offset="1" stop-color="#081E40"/>
</linearGradient>
<linearGradient id="paint1_linear_15350_13431" x1="50.078" y1="14.6137" x2="68.9173" y2="14.6137" gradientUnits="userSpaceOnUse">
<stop stop-color="#0294D3"/>
<stop offset="1" stop-color="#081E40"/>
</linearGradient>
<linearGradient id="paint2_linear_15350_13431" x1="63.2762" y1="15.2314" x2="67.6308" y2="15.2314" gradientUnits="userSpaceOnUse">
<stop stop-color="#0294D3"/>
<stop offset="1" stop-color="#081E40"/>
</linearGradient>
<clipPath id="clip0_15350_13431">
<rect width="130" height="50" fill="white"/>
</clipPath>
</defs>
</svg>
