<svg width="33" height="29" viewBox="0 0 33 29" fill="none" xmlns="http://www.w3.org/2000/svg">
<path d="M30.6667 14.8337L33 17.1837L22.1167 28.167L16.3333 22.3337L18.6667 19.9837L22.1167 23.4503L30.6667 14.8337ZM13.8333 0.666992C15.6014 0.666992 17.2971 1.36937 18.5474 2.61961C19.7976 3.86986 20.5 5.56555 20.5 7.33366C20.5 9.10177 19.7976 10.7975 18.5474 12.0477C17.2971 13.2979 15.6014 14.0003 13.8333 14.0003C12.0652 14.0003 10.3695 13.2979 9.11929 12.0477C7.86905 10.7975 7.16667 9.10177 7.16667 7.33366C7.16667 5.56555 7.86905 3.86986 9.11929 2.61961C10.3695 1.36937 12.0652 0.666992 13.8333 0.666992ZM13.8333 4.00033C12.9493 4.00033 12.1014 4.35151 11.4763 4.97664C10.8512 5.60176 10.5 6.4496 10.5 7.33366C10.5 8.21771 10.8512 9.06556 11.4763 9.69068C12.1014 10.3158 12.9493 10.667 13.8333 10.667C14.7174 10.667 15.5652 10.3158 16.1904 9.69068C16.8155 9.06556 17.1667 8.21771 17.1667 7.33366C17.1667 6.4496 16.8155 5.60176 16.1904 4.97664C15.5652 4.35151 14.7174 4.00033 13.8333 4.00033ZM13.8333 15.667C14.9667 15.667 16.3333 15.817 17.85 16.1003L15.0667 18.8837L13.8333 18.8337C8.88333 18.8337 3.66667 21.267 3.66667 22.3337V24.167H14L17.1667 27.3337H0.5V22.3337C0.5 17.9003 9.38333 15.667 13.8333 15.667Z" fill="black"/>
</svg>
