<svg width="40" height="40" viewBox="0 0 40 40" fill="none" xmlns="http://www.w3.org/2000/svg">
<path d="M5.6272 35.6448C4.62972 35.6448 3.77552 35.29 3.06458 34.5802C2.35486 33.8693 2 33.0151 2 32.0176V6.6272C2 5.62972 2.35486 4.77552 3.06458 4.06458C3.77552 3.35486 4.62972 3 5.6272 3H31.0176C32.0151 3 32.8693 3.35486 33.5803 4.06458C34.29 4.77552 34.6448 5.62972 34.6448 6.6272V16.9194C34.0705 16.6474 33.4811 16.4207 32.8766 16.2393C32.272 16.0579 31.6524 15.9219 31.0176 15.8312V6.6272H5.6272V29.932C7.13854 28.4811 8.85421 27.3023 10.7742 26.3955C12.693 25.4887 14.7708 24.9597 17.0076 24.8086C16.8564 25.3829 16.7355 25.9874 16.6448 26.6222C16.5542 27.2569 16.5088 27.8766 16.5088 28.4811C15.1486 28.6322 13.864 28.9647 12.6549 29.4786C11.4458 29.9924 10.3123 30.6877 9.25441 31.5642V32.0176H17.0529C17.2645 32.6826 17.5063 33.3174 17.7783 33.9219C18.0504 34.5264 18.3829 35.1008 18.7758 35.6448H5.6272ZM18.3224 21.136H18.7758C19.471 20.1385 20.295 19.2541 21.2478 18.4827C22.1993 17.7125 23.2494 17.1008 24.398 16.6474C24.4887 16.3451 24.557 16.0428 24.6029 15.7406C24.6477 15.4383 24.67 15.1209 24.67 14.7884C24.67 13.0353 24.0504 11.539 22.8111 10.2997C21.5718 9.06045 20.0756 8.44081 18.3224 8.44081C16.5693 8.44081 15.073 9.06045 13.8338 10.2997C12.5945 11.539 11.9748 13.0353 11.9748 14.7884C11.9748 16.5416 12.5945 18.0378 13.8338 19.2771C15.073 20.5164 16.5693 21.136 18.3224 21.136ZM18.3224 17.5088C17.5668 17.5088 16.9247 17.244 16.3964 16.7145C15.8668 16.1861 15.602 15.5441 15.602 14.7884C15.602 14.0327 15.8668 13.3907 16.3964 12.8624C16.9247 12.3328 17.5668 12.068 18.3224 12.068C19.0781 12.068 19.7201 12.3328 20.2485 12.8624C20.778 13.3907 21.0428 14.0327 21.0428 14.7884C21.0428 15.5441 20.778 16.1861 20.2485 16.7145C19.7201 17.244 19.0781 17.5088 18.3224 17.5088ZM27.3904 37.4584L26.8463 34.738C26.4836 34.5869 26.1439 34.4285 25.8271 34.2629C25.5091 34.096 25.1839 33.8917 24.8514 33.6499L22.2217 34.466L20.4081 31.3829L22.4937 29.5693C22.4332 29.1461 22.403 28.7531 22.403 28.3904C22.403 28.0277 22.4332 27.6348 22.4937 27.2116L20.4081 25.398L22.2217 22.3149L24.8514 23.131C25.1839 22.8892 25.5091 22.6848 25.8271 22.518C26.1439 22.3523 26.4836 22.194 26.8463 22.0428L27.3904 19.3224H31.0176L31.5617 22.0428C31.9244 22.194 32.2648 22.3602 32.5828 22.5416C32.8995 22.7229 33.2242 22.9496 33.5567 23.2217L36.1864 22.3149L38 25.4887L35.9144 27.3023C35.9748 27.665 36.005 28.0428 36.005 28.4358C36.005 28.8287 35.9748 29.2065 35.9144 29.5693L38 31.3829L36.1864 34.466L33.5567 33.6499C33.2242 33.8917 32.8995 34.096 32.5828 34.2629C32.2648 34.4285 31.9244 34.5869 31.5617 34.738L31.0176 37.4584H27.3904ZM29.204 32.0176C30.2015 32.0176 31.0557 31.6628 31.7666 30.953C32.4764 30.2421 32.8312 29.3879 32.8312 28.3904C32.8312 27.3929 32.4764 26.5387 31.7666 25.8278C31.0557 25.1181 30.2015 24.7632 29.204 24.7632C28.2065 24.7632 27.3523 25.1181 26.6414 25.8278C25.9317 26.5387 25.5768 27.3929 25.5768 28.3904C25.5768 29.3879 25.9317 30.2421 26.6414 30.953C27.3523 31.6628 28.2065 32.0176 29.204 32.0176Z" fill="black"/>
</svg>
